<svg xmlns="http://www.w3.org/2000/svg" viewBox="0 0 980 980" fill="none" shape-rendering="auto"><metadata xmlns:rdf="http://www.w3.org/1999/02/22-rdf-syntax-ns#" xmlns:xsi="http://www.w3.org/2001/XMLSchema-instance" xmlns:dc="http://purl.org/dc/elements/1.1/" xmlns:dcterms="http://purl.org/dc/terms/"><rdf:RDF><rdf:Description><dc:title>Lorelei</dc:title><dc:creator>Lisa Wischofsky</dc:creator><dc:source xsi:type="dcterms:URI">https://www.figma.com/community/file/1198749693280469639</dc:source><dcterms:license xsi:type="dcterms:URI">https://creativecommons.org/publicdomain/zero/1.0/</dcterms:license><dc:rights>Remix of „Lorelei” (https://www.figma.com/community/file/1198749693280469639) by „Lisa Wischofsky”, licensed under „CC0 1.0” (https://creativecommons.org/publicdomain/zero/1.0/)</dc:rights></rdf:Description></rdf:RDF></metadata><mask id="viewboxMask"><rect width="980" height="980" rx="0" ry="0" x="0" y="0" fill="#fff" /></mask><g mask="url(#viewboxMask)"><rect fill="#ffd5dc" width="980" height="980" x="0" y="0" /><g transform="translate(10 -60)"><path d="M586 147c15-1 29 1 42 8 4 2 8 2 11 5 2 3 1 7-2 9-3 1-6-1-9-2h-28a95 95 0 0 0-79 57c15-7 30-13 47-14 14-2 28-1 42 2 29 7 56 21 78 41 20 18 35 41 43 66l3 11c10 20 17 43 18 66 2 36-9 73-33 101-11 13-23 23-38 32l4 44 1 17a143 143 0 0 1-111 128c-17 4-35 6-52 5h-33c-23 1-47 7-69 15l-24 7c-11 3-23 1-34 3a79 79 0 0 1-57-22c-8 2-15 5-23 4s-16-4-20-11c3-1 6-2 9-5 5-5 6-12 5-19-1-16-7-29-14-43l-17-36-14-30-23-52a211 211 0 0 1-3-160 282 282 0 0 1 148-154c26-10 55-17 83-14 16 1 34 6 47 16-1-9 4-18 9-26 12-18 33-32 53-40 13-6 26-8 40-9Z" fill="#000000"/><path d="M528 244c41 6 80 22 113 47 28 21 50 49 65 81 13 28 20 60 19 91-1 15-3 30-8 44h-2l1-21c1-30-2-59-13-87-10-30-28-57-50-79-42-40-98-62-156-63a243 243 0 0 0-196 94 207 207 0 0 0-40 139l2 25c8 0 19 0 25 7l-3 3-17 1c-12 1-24 5-33 13a64 64 0 0 0-17 39c-5 32 12 65 39 83 16 10 36 15 55 9 4-2 9-5 14-3 3 1 4 4 5 7a251 251 0 0 0 90 100c8 7 18 13 28 18 18 8 38 14 57 19l32 8c5 1 9 1 13 3l-4 1c-25 2-48-3-72-10-12-3-23-7-34-12a306 306 0 0 1-84-63l2 28c1 17 0 35-6 52-4 12-11 24-19 34-10 10-22 19-34 26-10 7-21 14-32 18l-16 5 9-9 31-20 22-17a95 95 0 0 0 32-56c2-14 2-28 2-43v-27c-10-14-22-29-27-46-17 8-38 7-55-1-17-7-32-19-43-33-12-17-19-36-21-56s2-40 15-56c9-10 22-18 35-21-4-14-6-29-6-44a234 234 0 0 1 83-173 249 249 0 0 1 199-55Z" fill="#000"/><path d="M653 320c22 22 40 49 50 79 11 28 14 57 13 87l-1 21-5 15-2 13 2 56c0 21 1 42-1 63l-3 47c-2 16-7 31-14 45-11 18-26 33-44 44-13 8-27 12-41 16l-38 11-17 3c0 1 1 2 3 2 8 5 17 5 26 4-3 7-4 14-2 22 3 7 11 11 17 14 12 6 24 7 36 9 7 6 14 14 16 24 2 8 2 16-2 23-5 10-14 18-24 23-13 8-27 14-42 18a468 468 0 0 1-222-1c-17-4-33-9-48-17-12-6-23-13-32-22-5-7-9-14-10-23 11-4 22-11 32-18 12-7 24-16 34-26 8-10 15-22 19-34 6-17 7-35 6-52l-2-28 22 23c19 15 40 30 62 40 11 5 22 9 34 12 24 7 47 12 72 10l4-1c-4-2-8-2-13-3l-32-8c-19-5-39-11-57-19l-29-17c-11-9-23-17-33-27a251 251 0 0 1-56-74c-1-3-2-6-5-7-5-2-10 1-14 3-19 6-39 1-55-9a88 88 0 0 1-39-83c1-14 7-28 17-39 9-8 21-12 33-13l17-1 3-3c-6-7-17-7-25-7l-2-25a207 207 0 0 1 40-139 243 243 0 0 1 196-94c58 1 114 23 156 63Z" fill="#ffffff"/><path d="M710 522c3 0 3 4 4 6 3 11 4 23 5 34l2 21c1 22 2 43 1 65-1 21-1 44-5 65a136 136 0 0 1-80 99c-15 7-31 11-48 13v15c1 3 3 4 5 6 12 6 23 8 36 11 12 3 24 5 36 11-3 3-7 4-11 4-7 1-15-1-23-1-12-2-24-3-36-9-6-3-14-7-17-14-2-8-1-15 2-22-9 1-18 1-26-4-2 0-3-1-3-2l17-3 38-11c14-4 28-8 41-16 18-11 33-26 44-44 7-14 12-29 14-45l3-47c2-21 1-42 1-63l-2-56 2-13ZM252 549c8 0 17 1 23 7 5 4 10 9 12 15 1 3 0 6-2 8l-13 8c-7 6-7 19 0 25 6 5 14 8 21 11 2 0 5 1 6 3-1 2-3 3-5 3-10 0-20-3-28-9-5-3-8-8-9-13-2-8-2-17 4-24 4-6 11-9 18-12-4-5-7-11-14-13-7-3-15-3-22-5l9-4Z" fill="#000"/><path d="M683 467c8 6 11 15 12 25 1 5 1 12-2 16-2 5-10 5-12 0-3-4-2-10-3-14-1-5-3-11-7-14-4-2-8-1-11 0 9 13 9 30 4 45-2 6-5 12-9 17-4 3-8 6-12 7-4 2-10 1-14-2-5-5-7-11-7-17-1 4-2 9-6 12-2-2-3-3-3-6-1-7 0-14 2-20 4-14 11-26 20-36 7-7 15-13 25-16 8-2 16-1 23 3ZM479 473c18 7 33 21 40 40 3 7 5 15 4 22 0 2-1 5-3 4-3-2-5-6-6-9-5-9-10-17-17-25-8-9-18-16-29-19 6 10 8 22 8 34-1 11-5 22-12 30-5 6-12 11-20 10-6 0-11-1-15-5-9-7-13-17-15-28-1-8 0-15 2-22l-7 8c-3 4-10 4-13 0s-2-9 1-12c9-15 24-27 41-31 13-3 28-2 41 3Z" fill="#000000"/><path d="M524 402c7 3 12 9 15 16 4 6 6 12 4 19-1 2-2 5-4 3-3-2-5-6-6-9l-14 2-26 3-39 4c-12 1-24 0-36-1-3 0-7-1-9-3-3-2-2-7 1-8 9-3 20-2 30-4 7-1 14-4 20-6 9-3 17-7 26-9l20-5c5-1 12-4 18-2ZM631 404c11 0 19 6 30 8 6 2 14 1 20 5 2 1 3 4 2 7-2 2-5 2-8 2l-14 1-25 6-23 2-5 18-3 3-2-5c-1-10 0-21 5-30 2-4 4-9 8-12 4-4 10-6 15-5Z" fill="#000000"/><path d="M603 613v1c-4 8-11 15-20 18-3 1-7 1-9-1v-4c7-5 16-9 24-12l5-2Z" fill="#000000"/><path fill-rule="evenodd" clip-rule="evenodd" d="M438 634c-4 6-11 11-19 13 0-4 3-7 6-9 4-3 8-5 13-4Zm14 12 32 5 24 6c15 4 29 8 44 10 10 1 20 0 29-1 12-2 23-4 36-1 6 2 11 6 15 11 3 5 4 10 2 16s-7 13-13 17c-7 5-15 6-24 7l-30 3-29-2-21-5-10-3-12-3-14-4-23-8-17-10c-7-5-10-15-8-23 2-9 10-15 19-15Zm4 9-9 1c-4 1-7 4-8 8 0 3 2 6 3 8v1l8 8 4 2c0-9 0-19 4-27l-2-1Zm9 2a703 703 0 0 1 40 10c-2 11-5 22-4 33l-22-6-14-5-4-2 4-17v-13Zm87 20c-14-1-27-5-41-8a46 46 0 0 1-1 18c-1 5-2 10-5 14l9 2 13 4 17 3 5 1c-3-10 0-21 2-30l1-4Zm54-5c4 0 8 0 12 2 3 1 6 5 8 8 1 2 2 5 1 8-3 5-7 10-12 13s-10 4-16 5l-2 1 7-18 2-19Zm-13 25 5-25-15 3-23 2c0 10-2 19-5 29l-2 5a135 135 0 0 0 35-1l4-1 1-12Z" fill="#000000"/><path d="m618 150 17 7c2 2 5 4 5 7-1 3-4 6-7 5-10-3-21-3-32-2a95 95 0 0 0-80 57 127 127 0 0 1 100-9c19 6 37 15 54 26a153 153 0 0 1 62 138c-2 16-6 31-14 45-6 10-13 18-22 25s-18 11-27 16c-5 2-11 4-16 3l-4-1v-10c-1-13-4-27-7-40-6-22-14-43-24-64-8-14-16-30-28-41 10 21 15 45 13 69-1 19-6 37-12 55-7 17-16 34-29 48-6 6-14 12-22 13l6-12 7-27c2-13 4-26 4-39a158 158 0 0 1-59 78c-5 3-12 6-19 7-3 0-5-3-4-6l7-9c11-16 20-33 27-51 9-22 12-45 12-68a362 362 0 0 1-48 78c-15 15-31 27-50 37l-26 13c-4 1-8 3-11 0a783 783 0 0 0 13-72c1-18-1-36-4-54-1 8-4 16-8 23-9 18-23 34-38 48l-1 5c-2 14-3 29-2 43 1 15 4 28 8 42 2 8 6 15 9 23 1 2 2 4 1 7s-4 4-7 4a96 96 0 0 1-61-13c-3-2-5-5-10-5-28-1-56-13-75-34-13-16-20-36-23-56-3-29 2-57 12-84a281 281 0 0 1 149-155c26-10 55-17 83-14 16 1 34 6 47 16-1-9 3-17 8-24a128 128 0 0 1 78-49c15-3 33-4 48 1Z" fill="#000000"/></g><g transform="translate(10 -60)"></g></g></svg>